# xmcd
#
# Track frame offsets:
#	150
#	16482
#	29785
#	50925
#	70932
#	85275
#	107080
#	123945
#	142712
#	161142
#	175750
#	203280
#
# Disc length: 3626 seconds
#
# Revision: 12
# Processed by: cddbd v1.5.2PL0 Copyright (c) Steve Scherf et al.
# Submitted via: EasyCDDAExtractor 15.3.0.1
#
DISCID=a20e280c
DTITLE=Christina Aguilera - Mi Reflejo
DYEAR=2000
DGENRE=Latin
TTITLE0=Genio Atrapado
TTITLE1=Falsas Esperanzas
TTITLE2=El Beso Del Final
TTITLE3=Pero Me Acuerdo De Ti
TTITLE4=Ven Conmigo (Solamente Tu)
TTITLE5=Si No Te Hubiera Conocido
TTITLE6=Contigo En La Distancia
TTITLE7=Cuando No Es Contigo
TTITLE8=Por Siempre Tu
TTITLE9=Una Mujer
TTITLE10=Mi Reflejo
TTITLE11=Data Track
EXTD=YEAR: 2000
EXTT0=Genie in a Bottle
EXTT1=
EXTT2=
EXTT3=
EXTT4=Come On Over
EXTT5=
EXTT6=
EXTT7=
EXTT8=I Turn To You
EXTT9=What A Girl Wants
EXTT10=Reflection
EXTT11=
PLAYORDER=
